<svg xmlns="http://www.w3.org/2000/svg" fill="none" viewBox="0 0 50 50" id="React--Streamline-Svg-Logos" height="50" width="50">
  <desc>
    React Streamline Icon: https://streamlinehq.com
  </desc>
  <path fill="#00d8ff" d="M40.774427083333336 17.33890625c-0.5079166666666667 -0.17479166666666668 -1.0341666666666667 -0.34020833333333333 -1.5760416666666668 -0.49661458333333336 0.08906250000000002 -0.36348958333333337 0.17078125000000002 -0.7222916666666668 0.24348958333333337 -1.0749479166666667 1.1930208333333334 -5.7910416666666675 0.41296875000000005 -10.45640625 -2.2506250000000003 -11.992406250000002 -2.5540625000000006 -1.472838541666667 -6.730989583333334 0.06283333333333334 -10.94953125 3.734072916666667 -0.40562500000000007 0.35302083333333334 -0.8124479166666667 0.7268229166666667 -1.2190625 1.1185416666666668 -0.2709375 -0.25916666666666666 -0.5414062500000001 -0.5096354166666667 -0.8112500000000001 -0.74921875 -4.421093750000001 -3.92553125 -8.852604166666667 -5.579807291666667 -11.513593750000002 -4.0393437500000005 -2.5516145833333335 1.4771041666666669 -3.3072395833333337 5.862937500000001 -2.2333854166666667 11.351166666666666 0.10369791666666667 0.5301041666666667 0.2249479166666667 1.0714583333333334 0.36203125 1.621875 -0.6271875 0.17802083333333335 -1.23265625 0.3678645833333334 -1.81203125 0.5697395833333334C3.8311302083333336 19.188906250000002 0.5208333333333334 22.021145833333335 0.5208333333333334 24.958906250000002c0 3.0341145833333334 3.5536041666666667 6.077395833333334 8.952447916666667 7.922708333333334 0.42604166666666665 0.145625 0.8681250000000001 0.28328125000000004 1.323697916666667 0.4140104166666667 -0.14786458333333333 0.5953125 -0.2765104166666667 1.1786458333333334 -0.38447916666666665 1.7476041666666668 -1.0239583333333333 5.3929687500000005 -0.2243229166666667 9.675208333333334 2.3205208333333336 11.143020833333335 2.628541666666667 1.51578125 7.04 -0.042291666666666665 11.335677083333335 -3.7971875000000006 0.3394791666666667 -0.29682291666666666 0.6802604166666667 -0.6116145833333333 1.0215625000000002 -0.9415104166666668 0.4424479166666667 0.42604166666666665 0.88421875 0.8292708333333334 1.3235937500000001 1.2074479166666667 4.160833333333334 3.5805729166666667 8.270312500000001 5.026354166666668 10.812812500000001 3.554479166666667 2.6259375000000005 -1.52015625 3.479322916666667 -6.1202604166666665 2.371354166666667 -11.717083333333335 -0.08458333333333333 -0.4274479166666667 -0.18307291666666667 -0.8641145833333334 -0.29364583333333333 -1.3085937500000002 0.3097916666666667 -0.09156250000000002 0.6139062500000001 -0.18614583333333334 0.91046875 -0.2844270833333334C45.827447916666664 31.03979166666667 49.47916666666667 28.033541666666668 49.47916666666667 24.958906250000002c0 -2.948385416666667 -3.41703125 -5.799687500000001 -8.704739583333334 -7.62Zm-1.21734375 13.575208333333334c-0.2677083333333334 0.08864583333333334 -0.5423958333333334 0.1743229166666667 -0.8222916666666668 0.25734375 -0.6196354166666667 -1.9615625 -1.4558854166666668 -4.0473437500000005 -2.4792187500000002 -6.202395833333334 0.9765625000000001 -2.103645833333333 1.78046875 -4.1628125 2.382760416666667 -6.111666666666667 0.5007812500000001 0.14494791666666668 0.9868750000000001 0.29781250000000004 1.4553125 0.4591145833333333 4.53046875 1.5596354166666668 7.294062500000001 3.865572916666667 7.294062500000001 5.6423958333333335 0 1.8926041666666669 -2.9845833333333336 4.349479166666668 -7.830625000000001 5.955208333333333Zm-2.01078125 3.984479166666667c0.48989583333333336 2.47484375 0.5598958333333334 4.7123437500000005 0.23536458333333335 6.4615625 -0.2915625 1.57171875 -0.8779687500000001 2.619635416666667 -1.6030208333333333 3.039322916666667 -1.542916666666667 0.8930729166666667 -4.842395833333334 -0.26776041666666667 -8.400781250000001 -3.3298958333333335 -0.40796875000000005 -0.3509895833333334 -0.8188541666666668 -0.7258333333333333 -1.2310416666666668 -1.1225 1.37953125 -1.50875 2.7582291666666667 -3.2627083333333338 4.103854166666667 -5.210677083333334 2.3667708333333337 -0.21005208333333333 4.602812500000001 -0.5533854166666667 6.630625 -1.0221354166666667 0.09984375000000001 0.40286458333333336 0.18854166666666666 0.7979687500000001 0.265 1.1843229166666667ZM17.21182291666667 44.24515625c-1.5074479166666668 0.5323958333333334 -2.7080208333333333 0.5476041666666667 -3.4337500000000003 0.12916666666666668 -1.5443229166666668 -0.8907291666666667 -2.1863020833333335 -4.3289583333333335 -1.3105729166666669 -8.941041666666667 0.10026041666666667 -0.5281770833333334 0.2196875 -1.0707291666666667 0.35729166666666673 -1.6253125000000002 2.0055208333333336 0.4434895833333334 4.225208333333333 0.7626041666666666 6.597656250000001 0.9549479166666667 1.3546875 1.9060937500000001 2.773229166666667 3.6581770833333334 4.202760416666667 5.1922395833333335 -0.31234375000000003 0.3015625 -0.6234375000000001 0.5885937500000001 -0.9328125 0.8591145833333333 -1.8994791666666666 1.6603645833333334 -3.8030208333333335 2.8383854166666667 -5.4805729166666675 3.430885416666667ZM10.1496875 30.902552083333337c-2.3872395833333333 -0.8159375000000001 -4.358750000000001 -1.87640625 -5.710109375 -3.033645833333334 -1.2142812500000002 -1.0398958333333335 -1.8273489583333333 -2.072291666666667 -1.8273489583333333 -2.91 0 -1.7827604166666666 2.657822916666667 -4.056614583333334 7.090635416666667 -5.602135416666667 0.5378645833333333 -0.18755208333333334 1.1009375000000001 -0.3642708333333334 1.6852083333333334 -0.5303125000000001 0.61265625 1.9928645833333334 1.4163020833333335 4.07640625 2.386145833333334 6.183333333333334 -0.9823958333333335 2.1381770833333333 -1.7974479166666668 4.254947916666667 -2.41609375 6.271145833333334 -0.4165625 -0.11973958333333334 -0.8201041666666667 -0.24578125 -1.2084375 -0.3783854166666667Zm2.367291666666667 -16.11401041666667c-0.9201041666666667 -4.7021875 -0.30901041666666673 -8.249375 1.2286458333333334 -9.139479166666666 1.637916666666667 -0.948203125 5.259739583333333 0.40375000000000005 9.077031250000001 3.79328125 0.2440104166666667 0.21661458333333333 0.48901041666666667 0.44338541666666664 0.7346354166666668 0.6779687500000001 -1.4224479166666668 1.5273958333333333 -2.8280208333333334 3.2663020833333336 -4.1706770833333335 5.161197916666667 -2.3025520833333335 0.2133854166666667 -4.5066145833333335 0.55625 -6.533072916666667 1.0153125 -0.12739583333333335 -0.5125000000000001 -0.24026041666666667 -1.0160416666666667 -0.33656250000000004 -1.5082812500000002Zm21.11838541666667 5.214635416666667c-0.4844270833333334 -0.8367187500000001 -0.9817708333333334 -1.65375 -1.4887500000000002 -2.448385416666667 1.5620833333333335 0.19744791666666667 3.058697916666667 0.45958333333333334 4.464166666666666 0.7803645833333334 -0.4219270833333334 1.352291666666667 -0.9478645833333335 2.7662500000000003 -1.5669270833333335 4.215729166666668 -0.44411458333333337 -0.843125 -0.9138541666666667 -1.6932291666666668 -1.4084895833333333 -2.547708333333334ZM25.023333333333337 11.615052083333333c0.9647395833333334 1.0451041666666667 1.9308333333333334 2.2119791666666666 2.881041666666667 3.478020833333334 -0.9575520833333334 -0.045208333333333336 -1.926979166666667 -0.06875 -2.904375 -0.06875 -0.9681770833333334 0 -1.9304166666666667 0.023020833333333338 -2.8820833333333336 0.06744791666666668 0.9511979166666668 -1.2542708333333334 1.9256770833333334 -2.4195833333333336 2.905416666666667 -3.4767187500000003Zm-8.667187499999999 8.402604166666666c-0.48390625000000004 0.8391145833333333 -0.9448958333333334 1.6846354166666668 -1.3820312500000003 2.531666666666667 -0.6090625000000001 -1.4444270833333335 -1.1301041666666667 -2.864791666666667 -1.5557291666666668 -4.236302083333333 1.396875 -0.3126041666666667 2.8864583333333336 -0.5681770833333334 4.43859375 -0.7619270833333335 -0.5141666666666667 0.8020312500000001 -1.0155729166666667 1.6252083333333336 -1.5008333333333335 2.4665625Zm1.5455208333333335 12.498177083333335c-1.6036458333333334 -0.17890625000000002 -3.1156250000000005 -0.42130208333333335 -4.512083333333334 -0.7253125000000001 0.43239583333333337 -1.3959375000000003 0.9649479166666668 -2.846666666666667 1.5868750000000003 -4.322187500000001 0.43828125000000007 0.84640625 0.90109375 1.6922395833333335 1.38796875 2.533229166666667 0.4959375000000001 0.8567187500000001 1.0098437500000002 1.6958854166666668 1.5372395833333334 2.5142708333333337Zm7.179531250000001 5.934322916666667c-0.9912500000000001 -1.06953125 -1.9800000000000002 -2.252604166666667 -2.945677083333334 -3.52515625 0.9374479166666667 0.036770833333333336 1.8931770833333335 0.05557291666666667 2.8644791666666665 0.05557291666666667 0.9979166666666667 0 1.9843750000000002 -0.022500000000000003 2.9553645833333335 -0.06567708333333333 -0.9533854166666668 1.29546875 -1.9159895833333336 2.4803645833333334 -2.8741666666666665 3.535260416666667Zm9.982604166666667 -11.057031250000001c0.654375 1.4914583333333333 1.2059895833333334 2.9345833333333338 1.6439583333333334 4.306770833333334 -1.4194791666666668 0.3238541666666667 -2.9521354166666667 0.5846875 -4.566927083333334 0.7784895833333333 0.5082291666666667 -0.8054166666666667 1.0099479166666667 -1.6364062500000003 1.502916666666667 -2.49125 0.49875 -0.8647916666666667 0.9722916666666668 -1.7309375 1.4200520833333334 -2.594010416666667Zm-3.23171875 1.5491666666666668c-0.7653125000000001 1.3269791666666668 -1.5509895833333334 2.5936979166666667 -2.3486458333333338 3.7894270833333334 -1.4528125 0.10385416666666666 -2.953697916666667 0.15739583333333335 -4.4834375 0.15739583333333335 -1.5235416666666666 0 -3.005572916666667 -0.047343750000000004 -4.43265625 -0.13994791666666667 -0.8297916666666667 -1.21140625 -1.6325520833333336 -2.4819270833333333 -2.39296875 -3.7954687500000004 -0.7584375 -1.3099479166666668 -1.4563020833333336 -2.6309895833333337 -2.088802083333334 -3.944635416666667 0.63234375 -1.3166666666666669 1.328541666666667 -2.6391666666666667 2.082604166666667 -3.9467708333333333l-0.00020833333333333335 0.0002604166666666667c0.75609375 -1.3110937500000002 1.5518229166666666 -2.575416666666667 2.3739583333333334 -3.77921875 1.4559895833333334 -0.11010416666666668 2.9490625000000006 -0.1675 4.457968750000001 -0.1675 1.5157291666666668 0 3.0107812500000004 0.05786458333333334 4.46640625 0.16885416666666667 0.80953125 1.1950520833333336 1.5998958333333335 2.455260416666667 2.35890625 3.7665104166666667 0.76765625 1.3259895833333335 1.4728645833333336 2.6397395833333333 2.110572916666667 3.9281770833333334 -0.6358333333333335 1.3105729166666669 -1.3394270833333333 2.6375 -2.103697916666667 3.9629166666666666Zm4.314479166666667 -23.355416666666667c1.6394791666666668 0.9454166666666667 2.2770312500000003 4.758385416666667 1.2469791666666667 9.758333333333335 -0.06572916666666667 0.3190104166666667 -0.13968750000000002 0.6440104166666667 -0.22005208333333334 0.9733333333333334 -2.0311979166666667 -0.4686979166666667 -4.236822916666667 -0.8174479166666667 -6.546093750000001 -1.0340625 -1.3452604166666668 -1.9157291666666667 -2.739322916666667 -3.6573437500000003 -4.13859375 -5.165104166666667 0.37619791666666674 -0.36192708333333334 0.7518750000000001 -0.70703125 1.1259895833333335 -1.03265625 3.6144270833333336 -3.1455208333333333 6.992604166666667 -4.387432291666667 8.531770833333335 -3.49984375ZM25 20.587083333333336c2.4144270833333334 0 4.371822916666667 1.9572916666666669 4.371822916666667 4.371822916666667 0 2.4144270833333334 -1.9573958333333334 4.371770833333334 -4.371822916666667 4.371770833333334s-4.371822916666667 -1.9573437500000002 -4.371822916666667 -4.371770833333334c0 -2.4145312500000005 1.9573958333333334 -4.371822916666667 4.371822916666667 -4.371822916666667Z" stroke-width="0.5208"></path>
</svg>