<svg viewBox="0 0 34 34" fill="none" xmlns="http://www.w3.org/2000/svg" id="Programming-User-Code--Streamline-Freehand" height="34" width="34">
  <desc>
    Programming User Code Streamline Icon: https://streamlinehq.com
  </desc>
  <g id="programming-user-code">
    <g id="Group">
      <path id="Vector" d="M20.232550000000003 27.8103c-1.0115 0.6155416666666667 -2.2033416666666668 0.8658666666666667 -3.3769083333333336 0.7094666666666667 -0.4820916666666667 -0.049725 -0.957525 -0.14945833333333333 -1.418791666666667 -0.2980666666666667 -0.4582916666666667 -0.143225 -0.8968916666666668 -0.34340000000000004 -1.3053875000000001 -0.59585 -0.5051266666666667 -0.26845833333333335 -0.9473108333333334 -0.641325 -1.2971425 -1.09395 -0.34983166666666665 -0.45262500000000006 -0.5992925 -0.974525 -0.7317933333333334 -1.5309916666666668 0 -0.4114 -0.11351750000000002 -0.7944666666666667 -0.11351750000000002 -1.220175 0.06879333333333333 -1.0755333333333335 0.021221666666666666 -2.1553166666666668 -0.14187916666666667 -3.2207916666666665 -0.11902833333333333 -0.5985416666666666 -0.41570666666666667 -1.1473583333333333 -0.8513033333333334 -1.5749083333333334 -0.20153500000000002 -0.17467500000000002 -0.45700250000000003 -0.2748333333333334 -0.723605 -0.28375833333333333 -0.2909125 0.016291666666666666 -0.58021 0.05425833333333334 -0.8654983333333335 0.11361666666666666H5.490716666666667c-0.24361000000000002 -0.39482500000000004 -0.45704500000000003 -0.8075 -0.6384775 -1.2344833333333334 -0.16033833333333333 -0.4098416666666667 -0.26531333333333335 -0.8392333333333334 -0.31214833333333336 -1.2769833333333334 -0.04244333333333333 -0.334475 -0.04244333333333333 -0.6729166666666667 0 -1.0073916666666667 0.04818083333333333 -0.3317833333333333 0.13879083333333334 -0.6560583333333334 0.26957749999999997 -0.9647500000000001 0.3048808333333334 -0.9427066666666668 0.9396608333333335 -1.7437466666666668 1.7877483333333335 -2.2559708333333335 0.6420616666666668 -0.3253516666666667 1.3517266666666667 -0.4948841666666667 2.0715066666666666 -0.4948841666666667 0.7197941666666667 0 1.429459166666667 0.1695325 2.0715066666666666 0.4948841666666667 0.7236191666666667 0.3263433333333334 4.895036666666667 2.539729166666667 2.1140775 6.4699875 -0.06953000000000001 0.10724166666666668 -0.09364166666666668 0.2377166666666667 -0.06703666666666667 0.3626666666666667 0.026605000000000004 0.12509166666666668 0.101745 0.23445833333333335 0.20893 0.30415833333333336 0.47692083333333335 0.4199 0.9009575000000001 0.8963250000000001 1.2627741666666668 1.418791666666667 0.35615 0.51765 0.6513833333333333 1.0746833333333334 0.8796083333333334 1.66005 0.2245416666666667 0.5863583333333333 0.4047416666666667 1.188725 0.5391833333333333 1.802 0.14478333333333335 0.5162333333333333 0.39071666666666666 0.9984666666666667 0.7236333333333335 1.418791666666667 0.3179 0.3745666666666667 0.7390750000000001 0.6469916666666667 1.2111083333333335 0.7832749999999999 0.4718916666666667 0.13628333333333334 0.9735333333333335 0.13033333333333333 1.4421666666666668 -0.017141666666666666 0.21660833333333335 -0.053125 0.4298166666666667 -0.11956666666666668 0.6384916666666667 -0.19861666666666666l0.5675166666666667 -0.2695916666666667c0.06516666666666666 -0.029750000000000002 0.12395833333333334 -0.07210833333333334 0.17269166666666666 -0.12466666666666666 0.04887500000000001 -0.05241666666666667 0.08698333333333334 -0.11404166666666668 0.11191666666666668 -0.18133333333333335 0.025075000000000004 -0.06715 0.03655 -0.13855 0.034 -0.21023333333333336 -0.00255 -0.07168333333333334 -0.019266666666666668 -0.14209166666666667 -0.04901666666666667 -0.2074 -0.02989166666666667 -0.06516666666666666 -0.07225 -0.12381666666666669 -0.12466666666666666 -0.17269166666666666 -0.05255833333333334 -0.04887500000000001 -0.11418333333333335 -0.08684166666666668 -0.18133333333333335 -0.11191666666666668s-0.13869166666666669 -0.03655 -0.210375 -0.034c-0.07154166666666667 0.00255 -0.14209166666666667 0.019266666666666668 -0.20725833333333335 0.04901666666666667l-0.9222500000000001 0.18445000000000003c-0.2176 0.038675 -0.44185833333333335 0.013741666666666668 -0.6457166666666667 -0.071825 -0.20385833333333334 -0.08556666666666668 -0.378675 -0.22808333333333336 -0.5034833333333334 -0.41055 -0.19960833333333333 -0.3766916666666667 -0.33390833333333336 -0.7844083333333334 -0.39737500000000003 -1.2060083333333333 -0.12976666666666667 -0.5692166666666667 -0.32498333333333335 -1.1214333333333333 -0.5816833333333334 -1.6458833333333334 -0.39340833333333336 -0.6547833333333334 -0.8704 -1.255875 -1.418791666666667 -1.787691666666667 -0.4004916666666667 -0.3619583333333334 -0.8379583333333334 -0.6805666666666667 -1.3053875000000001 -0.9505833333333334 0 0 0.11350333333333333 0 0.15604583333333333 -0.09930833333333333 2.298541666666667 -3.2634333333333334 0.297925 -6.725355833333333 -2.6673991666666668 -8.215150833333334 -0.7439908333333334 -0.3999108333333333 -1.5612516666666667 -0.6450508333333334 -2.4025108333333334 -0.7206441666666666 -0.8412733333333334 -0.07559333333333333 -1.6891341666666666 0.0199325 -2.4924975 0.2808116666666667 -0.789735 0.30367666666666665 -1.4954191666666667 0.7917891666666668 -2.0581475 1.4236366666666669 -0.5627425 0.6318475 -0.9662375000000001 1.3891125000000002 -1.1768108333333334 2.2085975 -0.11554333333333333 0.4260908333333333 -0.18218333333333334 0.8641241666666667 -0.19864500000000002 1.3052741666666667 -0.03108166666666667 0.4471 0.0023658333333333335 0.8963250000000001 0.09932250000000001 1.3337916666666667 0.1181075 0.5323833333333334 0.30407333333333336 1.0473416666666666 0.55335 1.5322666666666667 0.15827000000000002 0.28928333333333334 0.33356833333333336 0.5687916666666667 0.5249741666666667 0.83725 -0.4746541666666667 0.012183333333333334 -0.9482883333333334 0.050008333333333335 -1.4188483333333335 0.113475 -0.40715 0.04675000000000001 -0.8072591666666666 0.14209166666666667 -1.1918275 0.28375833333333333 -0.27440833333333337 0.10285 -0.5150220833333333 0.27965 -0.6952320000000001 0.5107083333333333 -0.26346175 0.36465000000000003 -0.4603996666666667 0.7729333333333334 -0.5817258333333334 1.2060083333333333 -0.19157866666666667 0.8107583333333335 -0.31028825000000004 1.6369583333333333 -0.3547106666666667 2.468825 -0.224132675 2.06635 -0.15246931666666666 4.154233333333333 0.21282583333333335 6.200324999999999 0.24542191666666668 1.4015083333333334 0.7924776666666667 2.7327500000000002 1.603292666666667 3.9017833333333334 0.0766275 0.1037 0.1904991666666667 0.1734 0.3175741666666667 0.19450833333333334 0.12707500000000002 0.02125 0.25739416666666665 -0.007791666666666666 0.3634741666666667 -0.08089166666666667 0.102595 -0.07409166666666667 0.17198333333333332 -0.18544166666666667 0.1932191666666667 -0.31025 0.021221666666666666 -0.12466666666666666 -0.0073950000000000005 -0.252875 -0.07971583333333333 -0.356575 -0.658495 -1.0779416666666668 -1.0658433333333335 -2.290325 -1.1918275 -3.5471916666666665 -0.21906483333333335 -1.923691666666667 -0.15692983333333335 -3.868916666666667 0.18445000000000003 -5.774616666666667 0.0851275 -0.5250166666666667 0.18445000000000003 -1.24865 0.354705 -1.9013083333333336 0.06807083333333334 -0.295375 0.18303333333333335 -0.578 0.3405241666666667 -0.8371083333333333 -0.12769833333333333 -0.22709166666666666 0.567545 -0.113475 0.7803708333333333 -0.14195 0.4372683333333333 -0.061200000000000004 0.8780075 -0.09435000000000002 1.3195258333333333 -0.09930833333333333h2.1424391666666667c3.859255 -0.14180833333333334 3.5045500000000005 -0.43973333333333336 3.6890000000000005 0.624325 0.10660416666666667 0.8235083333333334 0.16345500000000002 1.6526833333333335 0.170255 2.4829916666666665 0.05573166666666667 1.4127 0.2602416666666667 2.8157666666666668 0.6101016666666667 4.1855416666666665 0.3277741666666667 1.3571666666666666 0.7642916666666667 2.6857166666666665 1.3053450000000002 3.9727583333333336 0.050801666666666676 0.135575 0.15332583333333336 0.24522500000000003 0.2850475 0.30515000000000003 0.1317075 0.05978333333333334 0.28180333333333335 0.06488333333333333 0.41727916666666665 0.014166666666666668 0.13546166666666667 -0.05085833333333334 0.2451966666666667 -0.153425 0.30506500000000003 -0.28503333333333336 0.059882500000000005 -0.13175 0.06496833333333334 -0.2819166666666667 0.014166666666666668 -0.41735 -0.3379741666666667 -0.9949250000000001 -0.6174825 -2.0086916666666665 -0.8371083333333333 -3.036341666666667 0.17015583333333334 0.19380000000000003 0.3551725 0.3741416666666667 0.55335 0.5391833333333333 0.5286433333333334 0.40020833333333333 1.1243658333333333 0.70295 1.7593158333333334 0.8939166666666667 0.6180916666666667 0.20116666666666666 1.26565 0.29707500000000003 1.9154750000000003 0.28375833333333333 1.520225 -0.006091666666666667 2.9849166666666673 -0.5717666666666668 4.114708333333334 -1.589075 0.05751666666666667 -0.043208333333333335 0.10596666666666668 -0.09746666666666667 0.14223333333333335 -0.1598 0.03626666666666667 -0.06219166666666667 0.05978333333333334 -0.1309 0.06899166666666667 -0.2024416666666667 0.00935 -0.0714 0.004108333333333334 -0.14393333333333333 -0.015016666666666668 -0.21335000000000004 -0.019266666666666668 -0.069275 -0.05227500000000001 -0.13415833333333335 -0.09690000000000001 -0.19068333333333334 -0.04887500000000001 -0.06275833333333333 -0.11064166666666668 -0.114325 -0.1811916666666667 -0.1510166666666667 -0.07055 -0.036833333333333336 -0.14818333333333333 -0.05794166666666667 -0.22765833333333335 -0.06205 -0.079475 -0.003966666666666667 -0.15880833333333336 0.009208333333333334 -0.23275833333333334 0.038533333333333336 -0.07395 0.029466666666666665 -0.140675 0.07451666666666668 -0.19550000000000003 0.13203333333333334Z" fill="#000000" stroke-width="1.4167"></path>
      <path id="Vector_2" d="M20.062266666666666 6.0452c0.11758333333333335 -0.08534000000000001 0.19691666666666668 -0.21354833333333337 0.22085833333333335 -0.35691500000000004 0.023799999999999998 -0.14335250000000002 -0.009633333333333334 -0.29036 -0.09321666666666667 -0.40926083333333335 -0.09010000000000001 -0.11569916666666669 -0.22043333333333331 -0.1931341666666667 -0.365075 -0.21682083333333332 -0.14478333333333335 -0.0236725 -0.29310833333333336 0.00816 -0.41522500000000007 0.08913666666666668l-3.6181666666666668 1.7309825c-0.4971083333333333 0.25229416666666665 -0.9716916666666666 0.5465925 -1.418791666666667 0.8796791666666667 -0.20850500000000002 0.18537083333333335 -0.3358916666666667 0.44523 -0.35469083333333334 0.7236191666666667 -0.019776666666666668 0.14529333333333333 -0.007125833333333333 0.293165 0.03703166666666667 0.43299000000000004 0.0441575 0.13983916666666668 0.11875916666666668 0.26816083333333335 0.21835083333333333 0.37574250000000003 0.18445000000000003 0.21282583333333335 0.7519666666666668 0.6810483333333334 0.7946083333333334 0.7236191666666667l3.17815 2.6106616666666667c0.09038333333333333 0.09011416666666668 0.212925 0.14070333333333335 0.3405666666666667 0.14070333333333335 0.12764166666666668 0 0.25004166666666666 -0.050589166666666664 0.34042500000000003 -0.14070333333333335 0.09010000000000001 -0.09041166666666667 0.14081666666666667 -0.21286833333333335 0.14081666666666667 -0.3405241666666667 0 -0.12764166666666668 -0.05071666666666667 -0.25009833333333337 -0.14081666666666667 -0.3405241666666667l-2.5964666666666667 -3.2491391666666667 -0.14180833333333334 -0.08514166666666667 0.524875 -0.22700666666666666 3.3485750000000003 -2.3410983333333335Z" fill="#000000" stroke-width="1.4167"></path>
      <path id="Vector_3" d="M24.23364166666667 11.79154c-0.057800000000000004 0.040970000000000006 -0.10695833333333334 0.09293333333333334 -0.14464166666666667 0.152915 -0.03768333333333333 0.0599675 -0.06318333333333334 0.12677750000000002 -0.07508333333333334 0.19661916666666668 -0.011758333333333334 0.0698275 -0.009775 0.14132666666666668 0.0059499999999999996 0.210375 0.015866666666666668 0.06906250000000001 0.04505000000000001 0.13432833333333336 0.08613333333333334 0.1920716666666667 0.08755 0.11469333333333334 0.21547500000000003 0.19173166666666666 0.35770833333333335 0.21546083333333335 0.14237500000000003 0.023715000000000003 0.2884333333333334 -0.007664166666666667 0.40842500000000004 -0.08776250000000001l3.6180250000000003 -1.7309825c0.5000833333333333 -0.2415275 0.9752333333333334 -0.53142 1.418791666666667 -0.8654983333333335 0.196775 -0.17661583333333333 0.32285833333333336 -0.4185825 0.35473333333333334 -0.6810483333333334 0.019691666666666666 -0.14311166666666666 0.006941666666666667 -0.2888016666666667 -0.03725833333333334 -0.42631749999999996 -0.0442 -0.13751583333333334 -0.11871666666666668 -0.26335833333333336 -0.21816666666666668 -0.3682341666666667 -0.25046666666666667 -0.2564875 -0.5158083333333333 -0.49810000000000004 -0.7944666666666667 -0.723605L26.035500000000003 5.250676666666667c-0.043633333333333336 -0.04914416666666667 -0.09690000000000001 -0.08883916666666668 -0.1564 -0.11664833333333334 -0.05964166666666667 -0.02780916666666667 -0.12424166666666667 -0.043165833333333334 -0.189975 -0.0450925 -0.06573333333333334 -0.0019408333333333333 -0.13104166666666667 0.009576666666666667 -0.19224166666666667 0.03384416666666667 -0.06105833333333333 0.024253333333333335 -0.11659166666666668 0.06074666666666667 -0.16305833333333333 0.10724166666666668 -0.04646666666666667 0.04648083333333333 -0.082875 0.10197166666666667 -0.10724166666666668 0.1630725 -0.024225000000000003 0.06110083333333334 -0.0357 0.1265225 -0.03385833333333334 0.19222750000000002 0.0019833333333333335 0.06571916666666668 0.017283333333333335 0.13033333333333333 0.045191666666666665 0.18990416666666668 0.02776666666666667 0.05957083333333333 0.06743333333333335 0.11282333333333334 0.11659166666666668 0.15649916666666666l2.5964666666666667 3.1923875 0.14195 0.09932250000000001c-0.18048333333333336 0.06233333333333333 -0.35600833333333337 0.13822416666666668 -0.5250166666666667 0.22700666666666666l-3.334266666666667 2.3410983333333335Z" fill="#000000" stroke-width="1.4167"></path>
      <path id="Vector_4" d="M24.46059166666667 3.3210208333333338c-0.05850833333333334 -0.025075000000000004 -0.12140833333333334 -0.03796666666666667 -0.18501666666666666 -0.03788166666666667 -0.06375 0.00007083333333333334 -0.12664999999999998 0.013132500000000002 -0.18501666666666666 0.03836333333333333 -0.05850833333333334 0.025230833333333334 -0.11120833333333334 0.062106666666666664 -0.15484166666666666 0.108375 -0.043775 0.046268333333333335 -0.07749166666666667 0.10095166666666668 -0.09930833333333333 0.16073500000000002 -0.5391833333333333 0.9222500000000001 -1.0783666666666667 1.8161100000000001 -1.5324083333333336 2.8376825000000006 -0.19861666666666666 0.41145666666666664 -0.35473333333333334 0.8371225000000001 -0.51085 1.2627741666666668 -0.155975 0.4256516666666667 -0.28375833333333333 0.8513033333333334 -0.3972333333333333 1.2911358333333334 -0.2695916666666667 1.0357675 -0.4540416666666667 2.0573258333333335 -0.6526583333333333 3.1072741666666666 -0.021675 0.06892083333333333 -0.029325 0.1414825 -0.02238333333333334 0.21340666666666666 0.006941666666666667 0.07191 0.02819166666666667 0.14170916666666666 0.06261666666666667 0.2052466666666667 0.034425 0.06352333333333333 0.081175 0.11948166666666667 0.1377 0.16456s0.12140833333333334 0.07834166666666667 0.19096666666666667 0.097835c0.13925833333333335 0.039836666666666666 0.288575 0.023530833333333334 0.41579166666666667 -0.04543250000000001 0.12735833333333332 -0.06896333333333333 0.22255833333333333 -0.18510166666666666 0.26520000000000005 -0.3234675 0.39737500000000003 -0.9648208333333335 0.83725 -1.9012516666666668 1.2344833333333334 -2.837696666666667 0.17028333333333334 -0.41145666666666664 0.3405666666666667 -0.8229275 0.49654166666666666 -1.2343841666666668 0.15838333333333335 -0.4137091666666667 0.2958 -0.8351675000000001 0.41154166666666664 -1.2627741666666668 0.297925 -1.0073775 0.5107083333333333 -2.014755 0.7944666666666667 -3.0221325 0.03768333333333333 -0.06372166666666666 0.06063333333333333 -0.13505083333333334 0.06729166666666667 -0.20878833333333335 0.006516666666666667 -0.07372333333333334 -0.003541666666666667 -0.147985 -0.029325 -0.2173591666666667 -0.025925 -0.06936 -0.06686666666666667 -0.13207583333333334 -0.12013333333333334 -0.18354333333333336 -0.053125 -0.051467500000000006 -0.11715833333333334 -0.09038333333333333 -0.187425 -0.11392833333333335Z" fill="#000000" stroke-width="1.4167"></path>
      <path id="Vector_5" d="M33.83920833333334 7.0668008333333345c-0.8371083333333333 -7.633381083333334 1.1492 -5.178780833333334 -5.902400000000001 -6.186161166666667C25.708533333333335 0.5540285833333334 23.462833333333336 0.35977950000000003 21.211466666666666 0.29891525c-1.1350333333333333 0 -2.2559 0 -3.3767666666666667 0.09931825000000001 -1.1208666666666667 0.09931966666666668 -2.298541666666667 0.24120308333333335 -3.3910750000000003 0.41146375 -1.0925191666666667 0.17026208333333334 -2.0715208333333335 0.24120450000000002 -3.164025833333333 0.41146516666666666C8.541239166666667 1.6893749999999998 8.441916666666666 0.7671320833333334 8.342594166666666 4.2291041666666676c-0.021278333333333337 0.3070483333333333 -0.021278333333333337 0.6152016666666666 0 0.9222500000000001 0.013954166666666667 0.2809816666666667 0.0471325 0.5606741666666667 0.09932250000000001 0.8371225000000001 0.14187916666666667 0.7094241666666667 0.3972758333333334 1.4188341666666668 0.5391549999999999 2.0573258333333335 0.005114166666666667 0.06613000000000001 0.023799999999999998 0.1305175 0.05491000000000001 0.18911083333333334 0.031110000000000002 0.05859333333333334 0.07396416666666666 0.11013166666666668 0.12589916666666667 0.15141333333333334 0.051935 0.04128166666666667 0.1118175 0.0714 0.17592166666666667 0.08849916666666667 0.06410416666666667 0.017085 0.13102750000000002 0.020768333333333333 0.19661916666666668 0.010809166666666667 0.06274416666666667 -0.0017850000000000001 0.12449666666666667 -0.016164166666666667 0.18157416666666668 -0.04230166666666667 0.0570775 -0.026123333333333335 0.10831833333333334 -0.06345250000000001 0.15067666666666668 -0.10979166666666668 0.04235833333333334 -0.046325000000000005 0.07495583333333333 -0.10069666666666668 0.09588 -0.15987083333333335 0.020924166666666667 -0.059188333333333336 0.029735833333333336 -0.121975 0.02589666666666667 -0.18463416666666668 0.150535 -0.8148383333333334 0.23594583333333335 -1.6403725 0.25539666666666666 -2.4687825 -0.009874166666666667 -0.47663750000000005 -0.062106666666666664 -0.9514475000000001 -0.15607416666666668 -1.4188341666666668 -0.07094666666666667 -0.5107933333333333 -0.22700666666666666 -1.0073916666666667 -0.22700666666666666 -1.5181708333333335 0.5434191666666667 -0.1065475 1.0931991666666667 -0.17765000000000003 1.645855 -0.21282583333333335 1.0499341666666666 -0.07094666666666667 2.0998825 -0.07094666666666667 3.1214550000000005 -0.11350333333333333 1.0215583333333333 -0.042570833333333336 2.1992333333333334 -0.07094666666666667 3.305933333333334 -0.0851275 1.1067 -0.014195 2.1992333333333334 0 3.2916250000000002 0 2.1992333333333334 0 4.3843000000000005 0 6.5977 0.170255 1.2060083333333333 0.0851275 2.4829916666666665 0 3.717333333333334 0h0.19861666666666666c0.08514166666666667 0.6668533333333334 0.18445000000000003 1.3337066666666668 0.22709166666666666 2.014755 0.0425 0.6810483333333334 0 1.4188483333333335 0.08514166666666667 2.2134 0.08514166666666667 0.7945516666666668 0.07083333333333335 1.4188341666666668 0.113475 2.213385833333333 0.15611666666666668 2.2701516666666666 0.3262583333333334 4.526108333333334 0.38306666666666667 6.725370000000001 0.010908333333333334 0.09463333333333333 0.05057500000000001 0.1837416666666667 0.113475 0.25528333333333336 -2.0623833333333335 0.29636666666666667 -4.150833333333334 0.36762500000000004 -6.228658333333334 0.212925l-2.5823 -0.08514166666666667h-1.7451916666666667c-1.5869500000000003 0.03258333333333333 -3.1700749999999998 0.17 -4.7388916666666665 0.4114 -0.06941666666666667 -0.005525 -0.13925833333333335 0.003966666666666667 -0.20470833333333333 0.027908333333333334 -0.06530833333333334 0.023941666666666667 -0.12480833333333334 0.06176666666666667 -0.17425000000000002 0.110925 -0.0493 0.04901666666666667 -0.08755 0.10823333333333333 -0.111775 0.17354166666666668 -0.02436666666666667 0.06516666666666666 -0.03428333333333333 0.13500833333333334 -0.029183333333333335 0.20442500000000002 0.005241666666666667 0.06941666666666667 0.025358333333333333 0.13699166666666668 0.05921666666666667 0.19790833333333332 0.03371666666666667 0.06091666666666667 0.08018333333333333 0.11375833333333334 0.136425 0.15498333333333333 0.05610000000000001 0.041225000000000005 0.12041666666666669 0.06984166666666666 0.18870000000000003 0.08372500000000001 0.06814166666666667 0.014025000000000003 0.13869166666666669 0.013033333333333334 0.20640833333333333 -0.002691666666666667 1.0642 0 2.114091666666667 0 3.1498166666666667 0.17014166666666666 -0.10355833333333334 0.36351666666666665 -0.18416666666666667 0.733125 -0.24111666666666667 1.1067 -0.021108333333333333 0.259675 -0.021108333333333333 0.5207666666666667 0 0.7804416666666666v0.7803c0 0.624325 0.15611666666666668 1.2060083333333333 0.21278333333333335 1.8161666666666667 -0.011899999999999999 0.14464166666666667 0.033575 0.28800833333333337 0.12636666666666668 0.39949999999999997 0.09293333333333334 0.11149166666666668 0.22581666666666667 0.18204166666666668 0.37031666666666674 0.19635000000000002 0.07111666666666668 0.007933333333333334 0.143225 0.0009916666666666667 0.21165 -0.019975 0.06856666666666666 -0.021108333333333333 0.13203333333333334 -0.05595833333333334 0.18643333333333334 -0.10256666666666668 0.05454166666666667 -0.04646666666666667 0.09888333333333334 -0.1037 0.130475 -0.16801666666666668 0.03159166666666667 -0.06431666666666667 0.049725 -0.13444166666666668 0.053125 -0.20598333333333335 0.17028333333333334 -0.624325 0.3262583333333334 -1.220175 0.439875 -1.858666666666667 0.021533333333333335 -0.2644916666666667 0.021533333333333335 -0.5301166666666667 0 -0.7946083333333334 0.02819166666666667 -0.26406666666666667 0.02819166666666667 -0.5304000000000001 0 -0.7944666666666667 -0.04915833333333334 -0.3448166666666667 -0.120275 -0.6859500000000001 -0.212925 -1.0215583333333333l1.0925333333333334 0.09930833333333333c1.245675 0.10625 2.4958833333333335 0.14889166666666667 3.745808333333333 0.12764166666666668 2.1397333333333335 -0.020683333333333335 4.265583333333334 -0.345525 6.3138000000000005 -0.9647500000000001 0.07026666666666667 -0.015158333333333333 0.13685000000000003 -0.04405833333333333 0.19578333333333334 -0.08528333333333334 0.05893333333333333 -0.04108333333333334 0.10908333333333334 -0.09364166666666668 0.147475 -0.15441666666666667 0.03825 -0.060775 0.06403333333333333 -0.12863333333333335 0.07579166666666667 -0.19960833333333333 0.011758333333333334 -0.070975 0.009208333333333334 -0.14350833333333335 -0.007508333333333334 -0.21335000000000004 0 -0.08514166666666667 -0.08514166666666667 -0.12778333333333333 -0.12778333333333333 -0.18445000000000003 0.09364166666666668 -0.03428333333333333 0.17495833333333333 -0.09576666666666667 0.23318333333333335 -0.1768s0.09066666666666667 -0.17765000000000003 0.09321666666666667 -0.2772416666666667c0.155975 -1.6600925 0.34042500000000003 -3.3768941666666668 0.36890000000000006 -5.107890833333334 0.021533333333333335 -1.1136416666666669 -0.030600000000000002 -2.22751 -0.15611666666666668 -3.334266666666667Z" fill="#000000" stroke-width="1.4167"></path>
      <path id="Vector_6" d="M31.923733333333338 25.298833333333334c-0.10058333333333333 -0.4852083333333334 -0.3789583333333334 -0.9154500000000001 -0.7803 -1.2060083333333333 -0.324275 -0.2024416666666667 -0.6964333333333333 -0.314925 -1.0783666666666667 -0.3262583333333334 -0.5747416666666667 0.0085 -1.14835 0.05595833333333334 -1.7168583333333334 0.14180833333333334l-5.06515 0.7094666666666667c-0.06318333333333334 0.006941666666666667 -0.1241 0.02649166666666667 -0.17935 0.05765833333333334 -0.05525 0.031166666666666665 -0.10355833333333334 0.07324166666666668 -0.14195 0.12367500000000001 -0.038533333333333336 0.05043333333333334 -0.06644166666666666 0.10823333333333333 -0.08188333333333334 0.16971666666666668 -0.015441666666666668 0.06148333333333334 -0.018275 0.12551666666666667 -0.008358333333333334 0.18813333333333335 0.006941666666666667 0.06304166666666666 0.02649166666666667 0.12395833333333334 0.05765833333333334 0.17920833333333336 0.031308333333333334 0.05525 0.07338333333333334 0.10355833333333334 0.12367500000000001 0.14209166666666667 0.05043333333333334 0.038391666666666664 0.10823333333333333 0.06630000000000001 0.16971666666666668 0.08174166666666667 0.06148333333333334 0.015583333333333333 0.12551666666666667 0.018416666666666668 0.18813333333333335 0.008358333333333334l5.136266666666667 -0.05666666666666667h1.0498916666666667c1.2343416666666667 0 0.5250166666666667 -0.17028333333333334 0.666825 1.8301916666666669 0.12778333333333333 1.4189333333333334 1.24865 1.4189333333333334 -1.33365 1.5040750000000003l-5.448358333333333 0.4114c-0.14435833333333334 0.007366666666666666 -0.27993333333333337 0.07083333333333335 -0.3781083333333334 0.17694166666666666 -0.09803333333333333 0.10596666666666668 -0.15073333333333333 0.2462166666666667 -0.14690833333333334 0.390575 0.0018416666666666666 0.07210833333333334 0.017991666666666666 0.14308333333333334 0.04774166666666667 0.208675 0.029608333333333334 0.06573333333333334 0.07225 0.12480833333333334 0.12509166666666668 0.17368333333333336 0.05298333333333334 0.04901666666666667 0.115175 0.08684166666666668 0.18289166666666667 0.11135 0.06785833333333334 0.024508333333333333 0.139825 0.035133333333333336 0.21179166666666666 0.031308333333333334l5.377383333333333 0.08514166666666667c0.6365083333333333 0.07125833333333334 1.2789666666666668 0.07125833333333334 1.9154750000000003 0 0.41933333333333334 -0.07210833333333334 0.8086333333333333 -0.26435 1.1208666666666667 -0.55335 0.2177416666666667 -0.29013333333333335 0.33263333333333334 -0.644725 0.3264 -1.0073916666666667 -0.026208333333333333 -0.5560416666666668 -0.08315833333333333 -1.1102416666666666 -0.17028333333333334 -1.66005 -0.0009916666666666667 -0.642175 -0.05794166666666667 -1.283075 -0.17028333333333334 -1.9154750000000003Z" fill="#000000" stroke-width="1.4167"></path>
    </g>
  </g>
</svg>